<svg xmlns="http://www.w3.org/2000/svg" width="128" height="128"><style>@media(prefers-color-scheme: dark){path{fill:#e9ecef}}</style><g fill="#101214"><path d="M125.691 64.016c-2.5-4.613-6.77-7.973-12.02-9.461a19.95 19.95 0 0 0-5.461-.766c-3.195 0-6.262.777-8.992 2.164l-.004-4.035-.008-2.187c0-1.91-1.551-3.461-3.461-3.461H3.477A3.46 3.46 0 0 0 .02 49.73l-.012 2.188c-.074 13.504-.219 38.641 21.98 64.91a3.46 3.46 0 0 0 2.641 1.227h49.965c1.02 0 1.984-.449 2.641-1.227a104.09 104.09 0 0 0 5.66-7.328c4.57-.695 36.852-6.418 44.098-29.738 1.699-5.469 1.238-11.062-1.301-15.746zm-99.437 47.121C7.32 88.008 6.863 66.566 6.922 53.188h85.379c.063 13.379-.395 34.82-19.328 57.949zm94.133-33.43c-4.551 14.645-22.523 21.137-32.371 23.645 7.668-13.73 10.117-26.516 10.875-36.707 2.406-2.445 5.738-3.934 9.32-3.934 1.199 0 2.402.168 3.574.5 3.441.977 6.219 3.141 7.824 6.102 1.664 3.074 1.934 6.668.777 10.395zM31.449 35.461a3.461 3.461 0 1 0 6.922 0c0-1.066.176-1.445.535-2.203.504-1.07 1.191-2.539 1.191-5.148s-.687-4.078-1.191-5.148c-.359-.762-.535-1.141-.535-2.203s.176-1.445.535-2.203c.504-1.07 1.191-2.539 1.191-5.148a3.46 3.46 0 0 0-3.457-3.461c-1.91 0-3.461 1.551-3.461 3.461 0 1.063-.18 1.445-.535 2.203-.504 1.07-1.195 2.535-1.195 5.148s.691 4.078 1.195 5.148c.355.758.535 1.137.535 2.203s-.18 1.445-.535 2.203c-.504 1.07-1.195 2.535-1.195 5.148zm0 0"/><path d="M45.289 35.461c0 1.91 1.547 3.457 3.457 3.457a3.46 3.46 0 0 0 3.461-3.457c0-1.066.18-1.445.535-2.203.504-1.07 1.195-2.539 1.195-5.148s-.691-4.078-1.195-5.148c-.355-.762-.535-1.141-.535-2.203s.18-1.445.535-2.203c.504-1.07 1.195-2.539 1.195-5.148 0-1.91-1.551-3.461-3.461-3.461a3.46 3.46 0 0 0-3.457 3.461c0 1.063-.18 1.445-.535 2.203-.508 1.07-1.195 2.535-1.195 5.148s.688 4.078 1.195 5.148c.355.758.535 1.137.535 2.203s-.18 1.445-.535 2.203c-.508 1.07-1.195 2.535-1.195 5.148zm13.836 0a3.46 3.46 0 0 0 3.461 3.457c1.91 0 3.457-1.547 3.457-3.457 0-1.066.18-1.445.539-2.203.504-1.07 1.191-2.539 1.191-5.148s-.687-4.078-1.191-5.148c-.359-.762-.539-1.141-.539-2.203s.18-1.445.539-2.203c.504-1.07 1.191-2.539 1.191-5.148a3.46 3.46 0 0 0-3.457-3.461c-1.91 0-3.461 1.551-3.461 3.461 0 1.063-.18 1.445-.535 2.203-.504 1.07-1.195 2.535-1.195 5.148s.691 4.078 1.195 5.148c.355.758.535 1.137.535 2.203s-.18 1.445-.535 2.203c-.504 1.07-1.195 2.535-1.195 5.148zm0 0"/></g></svg>
